<svg width="1037" height="900" viewBox="0 0 1037 900" fill="none" xmlns="http://www.w3.org/2000/svg">
<path d="M387.465 179.806C387.314 178.598 387.193 178.477 385.954 178.296C387.163 178.145 387.284 178.024 387.465 176.786C387.616 177.994 387.737 178.114 388.976 178.296C387.767 178.447 387.647 178.598 387.465 179.806Z" fill="white" fill-opacity="0.1"/>
<path d="M400.782 13.3301C400.631 12.122 400.51 12.0012 399.271 11.8199C400.48 11.6688 400.6 11.548 400.782 10.3097C400.933 11.5179 401.054 11.6386 402.293 11.8199C401.084 11.9708 400.963 12.122 400.782 13.3301Z" fill="white" fill-opacity="0.1"/>
<path d="M486.229 118.383C486.078 117.174 485.957 117.054 484.718 116.872C485.927 116.721 486.048 116.6 486.229 115.362C486.38 116.57 486.501 116.691 487.74 116.872C486.531 117.023 486.411 117.174 486.229 118.383Z" fill="white" fill-opacity="0.1"/>
<path d="M577.951 27.7029C577.951 28.32 577.45 28.8205 576.832 28.8205C576.215 28.8205 575.714 28.32 575.714 27.7029C575.714 27.0856 576.215 26.5854 576.832 26.5854C577.45 26.5854 577.951 27.0856 577.951 27.7029Z" fill="white" fill-opacity="0.1"/>
<path d="M423.895 78.2197C423.895 78.8368 423.395 79.3373 422.777 79.3373C422.16 79.3373 421.659 78.8368 421.659 78.2197C421.659 77.6024 422.16 77.1022 422.777 77.1022C423.395 77.1022 423.895 77.6024 423.895 78.2197Z" fill="white" fill-opacity="0.1"/>
<path d="M429.25 181.583C429.25 182.2 428.749 182.7 428.131 182.7C427.514 182.7 427.013 182.2 427.013 181.583C427.013 180.965 427.514 180.465 428.131 180.465C428.749 180.465 429.25 180.965 429.25 181.583Z" fill="white" fill-opacity="0.1"/>
<path d="M444.724 121.287C444.724 121.904 444.223 122.405 443.606 122.405C442.988 122.405 442.487 121.904 442.487 121.287C442.487 120.67 442.988 120.17 443.606 120.17C444.223 120.17 444.724 120.67 444.724 121.287Z" fill="white" fill-opacity="0.1"/>
<path d="M645.332 11.1235C644.553 11.9019 643.29 11.9019 642.511 11.1235C641.732 10.3449 641.732 9.0827 642.511 8.30434C643.29 7.52573 644.553 7.52573 645.332 8.30434C646.111 9.0827 646.111 10.3449 645.332 11.1235Z" fill="white" fill-opacity="0.15"/>
<path d="M526.904 78.3797C526.904 78.9968 526.403 79.4972 525.786 79.4972C525.168 79.4972 524.668 78.9968 524.668 78.3797C524.668 77.7624 525.168 77.2622 525.786 77.2622C526.403 77.2622 526.904 77.7624 526.904 78.3797Z" fill="white" fill-opacity="0.15"/>
<path d="M464.405 4.08257C464.254 2.87439 464.133 2.75363 462.894 2.57235C464.103 2.4212 464.224 2.30043 464.405 1.06213C464.556 2.27031 464.677 2.39107 465.916 2.57235C464.707 2.72324 464.586 2.87439 464.405 4.08257Z" fill="white" fill-opacity="0.1"/>
<path d="M493.196 82.1308C493.044 80.9227 492.924 80.8019 491.685 80.6206C492.893 80.4695 493.014 80.3487 493.196 79.1104C493.347 80.3186 493.468 80.4393 494.706 80.6206C493.498 80.7715 493.377 80.9227 493.196 82.1308Z" fill="white" fill-opacity="0.1"/>
<path d="M814.223 384.39C814.374 385.598 814.495 385.719 815.734 385.9C814.525 386.051 814.405 386.172 814.223 387.41C814.072 386.202 813.951 386.082 812.712 385.9C813.921 385.749 814.042 385.598 814.223 384.39Z" fill="white" fill-opacity="0.1"/>
<path d="M897.821 140.605C897.972 141.813 898.093 141.933 899.332 142.115C898.123 142.266 898.003 142.387 897.821 143.625C897.67 142.417 897.549 142.296 896.31 142.115C897.519 141.964 897.64 141.813 897.821 140.605Z" fill="white" fill-opacity="0.1"/>
<path d="M884.505 307.08C884.656 308.289 884.777 308.409 886.016 308.591C884.807 308.742 884.686 308.862 884.505 310.101C884.354 308.893 884.233 308.772 882.994 308.591C884.202 308.44 884.323 308.289 884.505 307.08Z" fill="white" fill-opacity="0.1"/>
<path d="M799.057 202.028C799.208 203.236 799.329 203.357 800.568 203.538C799.359 203.689 799.238 203.81 799.057 205.048C798.906 203.84 798.785 203.719 797.546 203.538C798.755 203.387 798.876 203.236 799.057 202.028Z" fill="white" fill-opacity="0.1"/>
<path d="M923.05 386.293C923.05 385.676 923.551 385.175 924.168 385.175C924.786 385.175 925.286 385.676 925.286 386.293C925.286 386.91 924.786 387.41 924.168 387.41C923.551 387.41 923.05 386.91 923.05 386.293Z" fill="white" fill-opacity="0.1"/>
<path d="M707.336 292.708C707.336 292.09 707.836 291.59 708.454 291.59C709.071 291.59 709.572 292.09 709.572 292.708C709.572 293.325 709.071 293.825 708.454 293.825C707.836 293.825 707.336 293.325 707.336 292.708Z" fill="white" fill-opacity="0.1"/>
<path d="M861.391 242.191C861.391 241.574 861.892 241.073 862.509 241.073C863.127 241.073 863.627 241.574 863.627 242.191C863.627 242.808 863.127 243.308 862.509 243.308C861.892 243.308 861.391 242.808 861.391 242.191Z" fill="white" fill-opacity="0.1"/>
<path d="M856.037 138.828C856.037 138.211 856.537 137.71 857.155 137.71C857.772 137.71 858.273 138.211 858.273 138.828C858.273 139.445 857.772 139.945 857.155 139.945C856.537 139.945 856.037 139.445 856.037 138.828Z" fill="white" fill-opacity="0.1"/>
<path d="M840.563 199.123C840.563 198.506 841.063 198.006 841.681 198.006C842.298 198.006 842.799 198.506 842.799 199.123C842.799 199.741 842.298 200.241 841.681 200.241C841.063 200.241 840.563 199.741 840.563 199.123Z" fill="white" fill-opacity="0.1"/>
<path d="M633.899 374.346C634.906 373.9 636.084 374.355 636.53 375.362C636.976 376.369 636.521 377.546 635.513 377.992C634.506 378.437 633.328 377.983 632.882 376.976C632.436 375.969 632.892 374.792 633.899 374.346Z" fill="white" fill-opacity="0.15"/>
<path d="M788.071 357.674C788.071 356.573 788.964 355.681 790.066 355.681C791.167 355.681 792.06 356.573 792.06 357.674C792.06 358.775 791.167 359.668 790.066 359.668C788.964 359.668 788.071 358.775 788.071 357.674Z" fill="white" fill-opacity="0.15"/>
<path d="M639.955 309.287C640.734 308.509 641.996 308.509 642.775 309.287C643.554 310.066 643.554 311.328 642.775 312.106C641.996 312.885 640.734 312.885 639.955 312.106C639.176 311.328 639.176 310.066 639.955 309.287Z" fill="white" fill-opacity="0.15"/>
<path d="M665.167 358.55C665.167 357.933 665.667 357.433 666.285 357.433C666.903 357.433 667.403 357.933 667.403 358.55C667.403 359.168 666.903 359.668 666.285 359.668C665.667 359.668 665.167 359.168 665.167 358.55Z" fill="white" fill-opacity="0.15"/>
<path d="M758.382 242.031C758.382 241.414 758.883 240.913 759.5 240.913C760.118 240.913 760.619 241.414 760.619 242.031C760.619 242.648 760.118 243.148 759.5 243.148C758.883 243.148 758.382 242.648 758.382 242.031Z" fill="white" fill-opacity="0.15"/>
<path d="M820.881 316.328C821.032 317.536 821.153 317.657 822.392 317.838C821.184 317.989 821.063 318.11 820.881 319.348C820.73 318.14 820.609 318.019 819.37 317.838C820.579 317.687 820.7 317.536 820.881 316.328Z" fill="white" fill-opacity="0.1"/>
<path d="M715.521 364.417C715.672 365.625 715.793 365.746 717.032 365.927C715.823 366.078 715.702 366.199 715.521 367.437C715.37 366.229 715.249 366.108 714.01 365.927C715.219 365.776 715.34 365.625 715.521 364.417Z" fill="white" fill-opacity="0.1"/>
<path d="M792.091 238.28C792.242 239.488 792.363 239.609 793.602 239.79C792.393 239.941 792.272 240.062 792.091 241.3C791.94 240.092 791.819 239.971 790.58 239.79C791.789 239.639 791.91 239.488 792.091 238.28Z" fill="white" fill-opacity="0.1"/>
<path d="M859.783 353.319C859.934 354.528 860.055 354.648 861.294 354.83C860.085 354.981 859.964 355.102 859.783 356.34C859.632 355.132 859.511 355.011 858.272 354.83C859.481 354.679 859.602 354.528 859.783 353.319Z" fill="white" fill-opacity="0.1"/>
<path d="M951.659 587.202C951.809 585.994 951.93 585.873 953.169 585.692C951.961 585.541 951.84 585.42 951.659 584.181C951.507 585.39 951.386 585.51 950.148 585.692C951.356 585.843 951.477 585.994 951.659 587.202Z" fill="white" fill-opacity="0.1"/>
<path d="M1035.3 729.362C1035.45 728.154 1035.57 728.033 1036.81 727.852C1035.6 727.701 1035.48 727.58 1035.3 726.341C1035.15 727.55 1035.03 727.67 1033.79 727.852C1035 728.003 1035.12 728.154 1035.3 729.362Z" fill="white" fill-opacity="0.1"/>
<path d="M939.063 721.025C939.214 719.816 939.335 719.696 940.574 719.514C939.365 719.363 939.244 719.243 939.063 718.004C938.912 719.212 938.791 719.333 937.552 719.514C938.76 719.665 938.881 719.816 939.063 721.025Z" fill="white" fill-opacity="0.1"/>
<path d="M774.231 629.139C774.382 627.931 774.503 627.81 775.742 627.629C774.533 627.478 774.412 627.357 774.231 626.119C774.08 627.327 773.959 627.448 772.72 627.629C773.929 627.78 774.05 627.931 774.231 629.139Z" fill="white" fill-opacity="0.1"/>
<path d="M862.944 533.196C863.095 531.988 863.216 531.867 864.455 531.686C863.246 531.534 863.125 531.414 862.944 530.175C862.793 531.383 862.672 531.504 861.433 531.686C862.641 531.836 862.762 531.988 862.944 533.196Z" fill="white" fill-opacity="0.1"/>
<path d="M882.152 579.203C882.152 579.82 882.653 580.32 883.27 580.32C883.888 580.32 884.388 579.82 884.388 579.203C884.388 578.585 883.888 578.085 883.27 578.085C882.653 578.085 882.152 578.585 882.152 579.203Z" fill="white" fill-opacity="0.1"/>
<path d="M716.061 687.068C716.061 687.685 716.561 688.185 717.179 688.185C717.796 688.185 718.297 687.685 718.297 687.068C718.297 686.45 717.796 685.95 717.179 685.95C716.561 685.95 716.061 686.45 716.061 687.068Z" fill="white" fill-opacity="0.1"/>
<path d="M972.773 611.607C972.773 612.224 973.274 612.725 973.892 612.725C974.509 612.725 975.01 612.224 975.01 611.607C975.01 610.99 974.509 610.49 973.892 610.49C973.274 610.49 972.773 610.99 972.773 611.607Z" fill="white" fill-opacity="0.1"/>
<path d="M761.594 529.118C761.594 529.735 762.095 530.235 762.713 530.235C763.33 530.235 763.831 529.735 763.831 529.118C763.831 528.5 763.33 528 762.713 528C762.095 528 761.594 528.5 761.594 529.118Z" fill="white" fill-opacity="0.1"/>
<path d="M999.406 654.886C999.406 655.503 999.907 656.003 1000.52 656.003C1001.14 656.003 1001.64 655.503 1001.64 654.886C1001.64 654.269 1001.14 653.768 1000.52 653.768C999.907 653.768 999.406 654.269 999.406 654.886Z" fill="white" fill-opacity="0.1"/>
<path d="M964.618 744.133C964.618 744.751 965.118 745.251 965.736 745.251C966.353 745.251 966.854 744.751 966.854 744.133C966.854 743.516 966.353 743.016 965.736 743.016C965.118 743.016 964.618 743.516 964.618 744.133Z" fill="white" fill-opacity="0.1"/>
<path d="M944.599 635.651C944.599 636.268 945.099 636.769 945.717 636.769C946.335 636.769 946.835 636.268 946.835 635.651C946.835 635.034 946.335 634.534 945.717 634.534C945.099 634.534 944.599 635.034 944.599 635.651Z" fill="white" fill-opacity="0.1"/>
<path d="M960.275 679.136C961.282 679.582 962.46 679.127 962.906 678.12C963.352 677.114 962.896 675.936 961.889 675.49C960.882 675.045 959.704 675.5 959.258 676.506C958.812 677.513 959.268 678.69 960.275 679.136Z" fill="white" fill-opacity="0.15"/>
<path d="M813.571 673.59C813.571 674.691 814.464 675.584 815.565 675.584C816.667 675.584 817.56 674.691 817.56 673.59C817.56 672.489 816.667 671.597 815.565 671.597C814.464 671.597 813.571 672.489 813.571 673.59Z" fill="white" fill-opacity="0.15"/>
<path d="M879.71 640.624C880.489 641.402 881.752 641.402 882.531 640.624C883.31 639.845 883.31 638.583 882.531 637.805C881.752 637.026 880.489 637.026 879.71 637.805C878.931 638.583 878.931 639.845 879.71 640.624Z" fill="white" fill-opacity="0.15"/>
<path d="M951.627 537.997C951.627 538.614 952.128 539.114 952.745 539.114C953.363 539.114 953.863 538.614 953.863 537.997C953.863 537.38 953.363 536.879 952.745 536.879C952.128 536.879 951.627 537.38 951.627 537.997Z" fill="white" fill-opacity="0.15"/>
<path d="M829.251 569.068C829.251 569.685 829.752 570.186 830.369 570.186C830.987 570.186 831.487 569.685 831.487 569.068C831.487 568.451 830.987 567.951 830.369 567.951C829.752 567.951 829.251 568.451 829.251 569.068Z" fill="white" fill-opacity="0.15"/>
<path d="M817.673 743.061C817.825 741.852 817.945 741.732 819.184 741.55C817.976 741.399 817.855 741.278 817.673 740.04C817.522 741.248 817.402 741.369 816.163 741.55C817.371 741.701 817.492 741.852 817.673 743.061Z" fill="white" fill-opacity="0.1"/>
<path d="M730.149 600.148C730.3 598.94 730.42 598.819 731.659 598.638C730.451 598.487 730.33 598.366 730.149 597.128C729.997 598.336 729.877 598.457 728.638 598.638C729.846 598.789 729.967 598.94 730.149 600.148Z" fill="white" fill-opacity="0.1"/>
<path d="M674.51 652.768C674.661 651.56 674.782 651.439 676.021 651.258C674.812 651.107 674.692 650.986 674.51 649.747C674.359 650.956 674.238 651.076 672.999 651.258C674.208 651.409 674.329 651.56 674.51 652.768Z" fill="white" fill-opacity="0.1"/>
<path d="M760.3 764.957C760.451 766.165 760.572 766.286 761.811 766.467C760.603 766.618 760.482 766.739 760.3 767.977C760.149 766.769 760.028 766.648 758.789 766.467C759.998 766.316 760.119 766.165 760.3 764.957Z" fill="white" fill-opacity="0.1"/>
<path d="M664.061 773.294C664.212 774.502 664.333 774.623 665.572 774.804C664.363 774.956 664.242 775.076 664.061 776.315C663.91 775.106 663.789 774.986 662.55 774.804C663.759 774.654 663.879 774.502 664.061 773.294Z" fill="white" fill-opacity="0.1"/>
<path d="M464.764 707C464.915 708.208 465.036 708.329 466.275 708.51C465.066 708.661 464.945 708.782 464.764 710.02C464.613 708.812 464.492 708.691 463.253 708.51C464.462 708.359 464.583 708.208 464.764 707Z" fill="white" fill-opacity="0.1"/>
<path d="M441.059 807.251C441.059 806.634 441.559 806.134 442.177 806.134C442.795 806.134 443.295 806.634 443.295 807.251C443.295 807.869 442.795 808.369 442.177 808.369C441.559 808.369 441.059 807.869 441.059 807.251Z" fill="white" fill-opacity="0.1"/>
<path d="M697.772 882.712C697.772 882.095 698.272 881.594 698.89 881.594C699.507 881.594 700.008 882.095 700.008 882.712C700.008 883.329 699.507 883.829 698.89 883.829C698.272 883.829 697.772 883.329 697.772 882.712Z" fill="white" fill-opacity="0.1"/>
<path d="M724.405 839.433C724.405 838.816 724.905 838.315 725.523 838.315C726.14 838.315 726.641 838.816 726.641 839.433C726.641 840.05 726.14 840.55 725.523 840.55C724.905 840.55 724.405 840.05 724.405 839.433Z" fill="white" fill-opacity="0.1"/>
<path d="M689.616 750.185C689.616 749.568 690.116 749.068 690.734 749.068C691.351 749.068 691.852 749.568 691.852 750.185C691.852 750.803 691.351 751.303 690.734 751.303C690.116 751.303 689.616 750.803 689.616 750.185Z" fill="white" fill-opacity="0.1"/>
<path d="M669.597 858.668C669.597 858.05 670.098 857.55 670.715 857.55C671.333 857.55 671.833 858.05 671.833 858.668C671.833 859.285 671.333 859.785 670.715 859.785C670.098 859.785 669.597 859.285 669.597 858.668Z" fill="white" fill-opacity="0.1"/>
<path d="M685.273 815.183C686.28 814.737 687.458 815.192 687.904 816.199C688.35 817.205 687.895 818.383 686.887 818.828C685.88 819.274 684.702 818.819 684.256 817.813C683.81 816.806 684.266 815.629 685.273 815.183Z" fill="white" fill-opacity="0.15"/>
<path d="M538.569 820.728C538.569 819.627 539.462 818.735 540.563 818.735C541.665 818.735 542.558 819.627 542.558 820.728C542.558 821.829 541.665 822.722 540.563 822.722C539.462 822.722 538.569 821.829 538.569 820.728Z" fill="white" fill-opacity="0.15"/>
<path d="M604.708 853.695C605.487 852.917 606.75 852.917 607.529 853.695C608.308 854.474 608.308 855.736 607.529 856.514C606.75 857.293 605.487 857.293 604.708 856.514C603.93 855.736 603.93 854.474 604.708 853.695Z" fill="white" fill-opacity="0.15"/>
<path d="M542.672 751.258C542.823 752.466 542.944 752.587 544.183 752.769C542.974 752.92 542.853 753.04 542.672 754.279C542.521 753.071 542.4 752.95 541.161 752.769C542.369 752.618 542.49 752.466 542.672 751.258Z" fill="white" fill-opacity="0.1"/>
<path d="M455.147 894.171C455.298 895.379 455.419 895.5 456.658 895.681C455.449 895.832 455.328 895.953 455.147 897.191C454.996 895.983 454.875 895.862 453.636 895.681C454.844 895.53 454.965 895.379 455.147 894.171Z" fill="white" fill-opacity="0.1"/>
<path d="M401.511 741.031C401.662 742.239 401.783 742.36 403.022 742.541C401.813 742.692 401.692 742.813 401.511 744.051C401.36 742.843 401.239 742.723 400 742.541C401.209 742.39 401.329 742.239 401.511 741.031Z" fill="white" fill-opacity="0.1"/>
</svg>
